<?xml version="1.0" encoding="utf-8"?>
<!-- Generator: Adobe Illustrator 15.1.0, SVG Export Plug-In . SVG Version: 6.00 Build 0)  -->
<!DOCTYPE svg PUBLIC "-//W3C//DTD SVG 1.1//EN" "http://www.w3.org/Graphics/SVG/1.1/DTD/svg11.dtd">
<svg version="1.1" id="Layer_1" xmlns="http://www.w3.org/2000/svg" xmlns:xlink="http://www.w3.org/1999/xlink" x="0px" y="0px"
	 width="24px" height="24px" viewBox="0 0 24 24" enable-background="new 0 0 24 24" xml:space="preserve">
<g id="Layer_1">
	<g>
		<path d="M24,11.374c0,4.55-3.783,6.96-7.146,6.796c-0.15,1.448,0.062,2.643,0.385,3.641L13.518,23
			c-0.338-1.129-0.992-3.822-2.751-5.279c-2.728,0.803-4.969-0.646-5.784-2.627C2.149,15.141,0,13.258,0,10.541
			C0,6.342,4.604,1,11.99,1C19.521,1,24,6.377,24,11.374z M2.008,10.305c-0.145,2.352,2.179,3.07,4.44,2.826
			c0.336,2.43,2.806,3.279,4.652,2.396c1.55,0.74,2.748,2.369,3.729,4.967l0.002,0.006l0.11-0.036
			c-0.219-1.579-0.09-3.323,0.36-4.528c3.907,0.687,6.849-1.152,6.69-4.828c-0.166-3.829-3.657-8.011-9.843-8.109
			C5.847,2.958,2.192,7.254,2.008,10.305z M10.173,7.821C9.481,7.507,9,6.809,9,6c0-1.104,0.896-2,2-2s2,0.896,2,2
			c0,0.26-0.05,0.509-0.141,0.738c1.215,0.911,2.404,1.855,3.6,2.794C16.883,9.199,17.419,9,18,9c1.38,0,2.5,1.12,2.5,2.5
			S19.38,14,18,14c-1.171,0-2.154-0.807-2.426-1.895c-1.201,0.098-2.404,0.173-3.606,0.254C11.798,13.292,10.981,14,10,14
			c-1.104,0-2-0.896-2-2c0-1.033,0.784-1.884,1.79-1.989C9.91,9.28,10.042,8.551,10.173,7.821z M12.232,7.575
			c-0.296,0.232-0.66,0.383-1.057,0.417l-0.363,2.18c0.504,0.224,0.898,0.651,1.079,1.177l3.648-0.289
			c0.047-0.267,0.137-0.519,0.262-0.749L12.232,7.575z"/>
	</g>
	<g>
		<path fill="#293247" d="M24,11.374c0,4.55-3.783,6.96-7.146,6.796c-0.15,1.448,0.062,2.643,0.385,3.641L13.518,23
			c-0.338-1.129-0.992-3.822-2.751-5.279c-2.728,0.803-4.969-0.646-5.784-2.627C2.149,15.141,0,13.258,0,10.541
			C0,6.342,4.604,1,11.99,1C19.521,1,24,6.377,24,11.374z M2.008,10.305c-0.145,2.352,2.179,3.07,4.44,2.826
			c0.336,2.43,2.806,3.279,4.652,2.396c1.55,0.74,2.748,2.369,3.729,4.967l0.002,0.006l0.11-0.036
			c-0.219-1.579-0.09-3.323,0.36-4.528c3.907,0.687,6.849-1.152,6.69-4.828c-0.166-3.829-3.657-8.011-9.843-8.109
			C5.847,2.958,2.192,7.254,2.008,10.305z M10.173,7.821C9.481,7.507,9,6.809,9,6c0-1.104,0.896-2,2-2s2,0.896,2,2
			c0,0.26-0.05,0.509-0.141,0.738c1.215,0.911,2.404,1.855,3.6,2.794C16.883,9.199,17.419,9,18,9c1.38,0,2.5,1.12,2.5,2.5
			S19.38,14,18,14c-1.171,0-2.154-0.807-2.426-1.895c-1.201,0.098-2.404,0.173-3.606,0.254C11.798,13.292,10.981,14,10,14
			c-1.104,0-2-0.896-2-2c0-1.033,0.784-1.884,1.79-1.989C9.91,9.28,10.042,8.551,10.173,7.821z M12.232,7.575
			c-0.296,0.232-0.66,0.383-1.057,0.417l-0.363,2.18c0.504,0.224,0.898,0.651,1.079,1.177l3.648-0.289
			c0.047-0.267,0.137-0.519,0.262-0.749L12.232,7.575z"/>
	</g>
</g>
</svg>
