<?xml version="1.0" encoding="utf-8"?>
<!-- Generator: Adobe Illustrator 15.1.0, SVG Export Plug-In . SVG Version: 6.00 Build 0)  -->
<!DOCTYPE svg PUBLIC "-//W3C//DTD SVG 1.1//EN" "http://www.w3.org/Graphics/SVG/1.1/DTD/svg11.dtd">
<svg version="1.1" id="Layer_1" xmlns="http://www.w3.org/2000/svg" xmlns:xlink="http://www.w3.org/1999/xlink" x="0px" y="0px"
	 width="24px" height="24px" viewBox="0 0 24 24" enable-background="new 0 0 24 24" xml:space="preserve">
<g id="Layer_1">
	<g>
		<g>
			<g>
				<path d="M6,23H0v-2h6V23z M15,21H9v2h6V21z M24,21h-6v2h6V21z M6,17H0v2h6V17z M15,17H9v2h6V17z M24,17h-6v2h6V17z M24,13h-6v2
					h6V13z M6,13H0v2h6V13z M15,13H9v2h6V13z M6,9H0v2h6V9z M15,9H9v2h6V9z M15,5H9v2h6V5z M15,1H9v2h6V1z"/>
			</g>
			<g>
				<path fill="#231F20" d="M6,23H0v-2h6V23z M15,21H9v2h6V21z M24,21h-6v2h6V21z M6,17H0v2h6V17z M15,17H9v2h6V17z M24,17h-6v2h6
					V17z M24,13h-6v2h6V13z M6,13H0v2h6V13z M15,13H9v2h6V13z M6,9H0v2h6V9z M15,9H9v2h6V9z M15,5H9v2h6V5z M15,1H9v2h6V1z"/>
			</g>
		</g>
	</g>
	<g>
		<g>
			<g>
				<path fill="#293247" d="M6,23H0v-2h6V23z M15,21H9v2h6V21z M24,21h-6v2h6V21z M6,17H0v2h6V17z M15,17H9v2h6V17z M24,17h-6v2h6
					V17z M24,13h-6v2h6V13z M6,13H0v2h6V13z M15,13H9v2h6V13z M6,9H0v2h6V9z M15,9H9v2h6V9z M15,5H9v2h6V5z M15,1H9v2h6V1z"/>
			</g>
			<g>
				<path fill="#293247" d="M6,23H0v-2h6V23z M15,21H9v2h6V21z M24,21h-6v2h6V21z M6,17H0v2h6V17z M15,17H9v2h6V17z M24,17h-6v2h6
					V17z M24,13h-6v2h6V13z M6,13H0v2h6V13z M15,13H9v2h6V13z M6,9H0v2h6V9z M15,9H9v2h6V9z M15,5H9v2h6V5z M15,1H9v2h6V1z"/>
			</g>
		</g>
	</g>
</g>
</svg>
