<?xml version="1.0" encoding="utf-8"?>
<!-- Generator: Adobe Illustrator 15.1.0, SVG Export Plug-In . SVG Version: 6.00 Build 0)  -->
<!DOCTYPE svg PUBLIC "-//W3C//DTD SVG 1.1//EN" "http://www.w3.org/Graphics/SVG/1.1/DTD/svg11.dtd">
<svg version="1.1" id="Layer_1" xmlns="http://www.w3.org/2000/svg" xmlns:xlink="http://www.w3.org/1999/xlink" x="0px" y="0px"
	 width="24px" height="24px" viewBox="0 0 24 24" enable-background="new 0 0 24 24" xml:space="preserve">
<g id="Layer_1">
	<g>
		<path d="M6,23V12c-4.036,0-6,2.715-6,5.5C0,20.307,1.995,23,6,23z M24,17.5c0-2.785-1.964-5.5-6-5.5v11
			C22.005,23,24,20.307,24,17.5z M12,3.978C8.121,3.97,5.139,6.327,4.257,10.173c-0.751,0.145-1.479,0.385-2.161,0.716
			C2.725,5.388,6.415,1,12,1c5.589,0,9.29,4.389,9.916,9.896c-0.684-0.334-1.415-0.575-2.169-0.721
			C18.866,6.325,15.88,3.97,12,3.978z"/>
	</g>
	<g>
		<path fill="#293247" d="M6,23V12c-4.036,0-6,2.715-6,5.5C0,20.307,1.995,23,6,23z M24,17.5c0-2.785-1.964-5.5-6-5.5v11
			C22.005,23,24,20.307,24,17.5z M12,3.978C8.121,3.97,5.139,6.327,4.257,10.173c-0.751,0.145-1.479,0.385-2.161,0.716
			C2.725,5.388,6.415,1,12,1c5.589,0,9.29,4.389,9.916,9.896c-0.684-0.334-1.415-0.575-2.169-0.721
			C18.866,6.325,15.88,3.97,12,3.978z"/>
	</g>
</g>
</svg>
