<?xml version="1.0" encoding="utf-8"?>
<!-- Generator: Adobe Illustrator 15.1.0, SVG Export Plug-In . SVG Version: 6.00 Build 0)  -->
<!DOCTYPE svg PUBLIC "-//W3C//DTD SVG 1.1//EN" "http://www.w3.org/Graphics/SVG/1.1/DTD/svg11.dtd">
<svg version="1.1" id="Layer_1" xmlns="http://www.w3.org/2000/svg" xmlns:xlink="http://www.w3.org/1999/xlink" x="0px" y="0px"
	 width="24px" height="24px" viewBox="0 0 24 24" enable-background="new 0 0 24 24" xml:space="preserve">
<g id="Layer_1">
	<g>
		<path d="M19,2c0-1.104-0.896-2-2-2H7C5.896,0,5,0.896,5,2v20c0,1.104,0.896,2,2,2h10c1.104,0,2-0.896,2-2V2z M10.5,2h3
			C13.775,2,14,2.224,14,2.5S13.775,3,13.5,3h-3C10.224,3,10,2.776,10,2.5S10.224,2,10.5,2z M12,22c-0.553,0-1-0.448-1-1
			s0.447-1,1-1c0.552,0,0.999,0.448,0.999,1S12.552,22,12,22z M17,19H7V4.976h10V19z"/>
	</g>
	<g>
		<path fill="#293247" d="M19,2c0-1.104-0.896-2-2-2H7C5.896,0,5,0.896,5,2v20c0,1.104,0.896,2,2,2h10c1.104,0,2-0.896,2-2V2z
			 M10.5,2h3C13.775,2,14,2.224,14,2.5S13.775,3,13.5,3h-3C10.224,3,10,2.776,10,2.5S10.224,2,10.5,2z M12,22c-0.553,0-1-0.448-1-1
			s0.447-1,1-1c0.552,0,0.999,0.448,0.999,1S12.552,22,12,22z M17,19H7V4.976h10V19z"/>
	</g>
</g>
</svg>
