<?xml version="1.0" encoding="utf-8"?>
<!-- Generator: Adobe Illustrator 15.1.0, SVG Export Plug-In . SVG Version: 6.00 Build 0)  -->
<!DOCTYPE svg PUBLIC "-//W3C//DTD SVG 1.1//EN" "http://www.w3.org/Graphics/SVG/1.1/DTD/svg11.dtd">
<svg version="1.1" id="Layer_1" xmlns="http://www.w3.org/2000/svg" xmlns:xlink="http://www.w3.org/1999/xlink" x="0px" y="0px"
	 width="24px" height="24px" viewBox="0 0 24 24" enable-background="new 0 0 24 24" xml:space="preserve">
<g id="Layer_1">
	<g>
		<path d="M20,22.621l-3.521-6.795c-0.008,0.004-1.974,0.97-2.063,1.011c-2.24,1.086-6.799-7.82-4.609-8.994l2.083-1.026L8.396,0
			L6.29,1.039c-7.202,3.755,4.233,25.982,11.601,22.615C18.012,23.6,19.992,22.625,20,22.621z"/>
	</g>
	<g>
		<path fill="#293247" d="M20,22.621l-3.521-6.795c-0.008,0.004-1.974,0.97-2.063,1.011c-2.24,1.086-6.799-7.82-4.609-8.994
			l2.083-1.026L8.396,0L6.29,1.039c-7.202,3.755,4.233,25.982,11.601,22.615C18.012,23.6,19.992,22.625,20,22.621z"/>
	</g>
</g>
</svg>
