<?xml version="1.0" encoding="utf-8"?>
<!-- Generator: Adobe Illustrator 15.1.0, SVG Export Plug-In . SVG Version: 6.00 Build 0)  -->
<!DOCTYPE svg PUBLIC "-//W3C//DTD SVG 1.1//EN" "http://www.w3.org/Graphics/SVG/1.1/DTD/svg11.dtd">
<svg version="1.1" id="Layer_1" xmlns="http://www.w3.org/2000/svg" xmlns:xlink="http://www.w3.org/1999/xlink" x="0px" y="0px"
	 width="24px" height="24px" viewBox="0 0 24 24" enable-background="new 0 0 24 24" xml:space="preserve">
<g id="Layer_1">
	<g>
		<path d="M9,12l-4.463,4.969L0,12h3c0-4.97,4.03-9,9-9c2.395,0,4.564,0.942,6.18,2.468l-2.005,2.231C15.094,6.649,13.622,6,12,6
			c-3.309,0-6,2.691-6,6H9z M19.463,7.031L15,12h3c0,3.309-2.691,6-6,6c-1.623,0-3.094-0.65-4.175-1.699l-2.004,2.231
			C7.434,20.059,9.605,21,12,21c4.971,0,9-4.03,9-9h3L19.463,7.031z"/>
	</g>
	<g>
		<path fill="#FFFFFF" d="M9,12l-4.463,4.969L0,12h3c0-4.97,4.03-9,9-9c2.395,0,4.564,0.942,6.18,2.468l-2.005,2.231
			C15.094,6.649,13.622,6,12,6c-3.309,0-6,2.691-6,6H9z M19.463,7.031L15,12h3c0,3.309-2.691,6-6,6c-1.623,0-3.094-0.65-4.175-1.699
			l-2.004,2.231C7.434,20.059,9.605,21,12,21c4.971,0,9-4.03,9-9h3L19.463,7.031z"/>
	</g>
</g>
</svg>
