<?xml version="1.0" encoding="utf-8"?>
<!-- Generator: Adobe Illustrator 15.1.0, SVG Export Plug-In . SVG Version: 6.00 Build 0)  -->
<!DOCTYPE svg PUBLIC "-//W3C//DTD SVG 1.1//EN" "http://www.w3.org/Graphics/SVG/1.1/DTD/svg11.dtd">
<svg version="1.1" id="Layer_1" xmlns="http://www.w3.org/2000/svg" xmlns:xlink="http://www.w3.org/1999/xlink" x="0px" y="0px"
	 width="24px" height="24px" viewBox="0 0 24 24" enable-background="new 0 0 24 24" xml:space="preserve">
<g id="Layer_1">
	<g>
		<path d="M10.149,7.381C8.667,7.373,6.806,8.176,5.386,9.595C4.845,10.136,4.367,10.768,4,11.477
			c1.281-0.969,2.647-1.273,4.247-0.375C8.718,9.857,9.346,8.59,10.149,7.381z M18.626,15.842c-1.313,0.858-2.604,1.479-3.724,1.914
			c0.897,1.6,0.595,2.964-0.375,4.244c0.711-0.367,1.343-0.844,1.884-1.386C17.836,19.191,18.641,17.326,18.626,15.842z
			 M23.955,2.037C23.598,2.012,23.248,2,22.904,2C15.453,2,11.212,7.678,9.669,12.245l4.095,4.094C18.466,14.654,24,10.572,24,3.203
			C24,2.823,23.984,2.435,23.955,2.037z M15.391,10.616c-0.34-0.338-0.34-0.886,0-1.224c0.338-0.338,0.885-0.338,1.223,0
			c0.34,0.338,0.34,0.886,0,1.224C16.275,10.955,15.729,10.955,15.391,10.616z M17.839,8.168c-0.677-0.676-0.677-1.772,0-2.449
			c0.677-0.677,1.772-0.676,2.449,0c0.677,0.676,0.677,1.772,0,2.449C19.611,8.844,18.516,8.844,17.839,8.168z M11.75,16.891
			c-1.469,1.797-3.812,3.084-6.126,3.084c-3.2,0-5.624-2.354-5.624-5.311c0-1.484,0.611-3.122,2.043-4.689
			c-3.201,5.136,1.532,9.832,7.101,4.31l0.765,0.765c-0.91,1.062-1.84,1.8-3.149,2.461c1.344,0.058,3.049-0.567,4.195-1.416
			L11.75,16.891z"/>
	</g>
	<g>
		<path fill="#293247" d="M10.149,7.381C8.667,7.373,6.806,8.176,5.386,9.595C4.845,10.136,4.367,10.768,4,11.477
			c1.281-0.969,2.647-1.273,4.247-0.375C8.718,9.857,9.346,8.59,10.149,7.381z M18.626,15.842c-1.313,0.858-2.604,1.479-3.724,1.914
			c0.897,1.6,0.595,2.964-0.375,4.244c0.711-0.367,1.343-0.844,1.884-1.386C17.836,19.191,18.641,17.326,18.626,15.842z
			 M23.955,2.037C23.598,2.012,23.248,2,22.904,2C15.453,2,11.212,7.678,9.669,12.245l4.095,4.094C18.466,14.654,24,10.572,24,3.203
			C24,2.823,23.984,2.435,23.955,2.037z M15.391,10.616c-0.34-0.338-0.34-0.886,0-1.224c0.338-0.338,0.885-0.338,1.223,0
			c0.34,0.338,0.34,0.886,0,1.224C16.275,10.955,15.729,10.955,15.391,10.616z M17.839,8.168c-0.677-0.676-0.677-1.772,0-2.449
			c0.677-0.677,1.772-0.676,2.449,0c0.677,0.676,0.677,1.772,0,2.449C19.611,8.844,18.516,8.844,17.839,8.168z M11.75,16.891
			c-1.469,1.797-3.812,3.084-6.126,3.084c-3.2,0-5.624-2.354-5.624-5.311c0-1.484,0.611-3.122,2.043-4.689
			c-3.201,5.136,1.532,9.832,7.101,4.31l0.765,0.765c-0.91,1.062-1.84,1.8-3.149,2.461c1.344,0.058,3.049-0.567,4.195-1.416
			L11.75,16.891z"/>
	</g>
</g>
</svg>
