<?xml version="1.0" encoding="utf-8"?>
<!-- Generator: Adobe Illustrator 15.1.0, SVG Export Plug-In . SVG Version: 6.00 Build 0)  -->
<!DOCTYPE svg PUBLIC "-//W3C//DTD SVG 1.1//EN" "http://www.w3.org/Graphics/SVG/1.1/DTD/svg11.dtd">
<svg version="1.1" id="Layer_1" xmlns="http://www.w3.org/2000/svg" xmlns:xlink="http://www.w3.org/1999/xlink" x="0px" y="0px"
	 width="24px" height="24px" viewBox="0 0 24 24" enable-background="new 0 0 24 24" xml:space="preserve">
<g id="Layer_1">
	<g>
		<path d="M12,2c5.514,0,10,4.486,10,10c0,5.514-4.486,10-10,10C6.486,22,2,17.514,2,12C2,6.486,6.486,2,12,2z M12,0
			C5.373,0,0,5.373,0,12s5.373,12,12,12s12-5.373,12-12S18.627,0,12,0z M18,14H6c0.331,1.465,2.827,4,6.001,4
			C15.135,18,17.667,15.479,18,14z M18,10.002l-0.755,0.506c0,0-0.503-0.948-1.746-0.948c-1.207,0-1.745,0.948-1.745,0.948
			L13,10.002C13.281,9.254,14.205,8,15.499,8C16.794,8,17.717,9.254,18,10.002z M11,10.002l-0.755,0.506
			c0,0-0.503-0.948-1.746-0.948c-1.207,0-1.745,0.948-1.745,0.948L6,10.002C6.281,9.254,7.205,8,8.499,8
			C9.794,8,10.717,9.254,11,10.002z"/>
	</g>
	<g>
		<path fill="#293247" d="M12,2c5.514,0,10,4.486,10,10c0,5.514-4.486,10-10,10C6.486,22,2,17.514,2,12C2,6.486,6.486,2,12,2z M12,0
			C5.373,0,0,5.373,0,12s5.373,12,12,12s12-5.373,12-12S18.627,0,12,0z M18,14H6c0.331,1.465,2.827,4,6.001,4
			C15.135,18,17.667,15.479,18,14z M18,10.002l-0.755,0.506c0,0-0.503-0.948-1.746-0.948c-1.207,0-1.745,0.948-1.745,0.948
			L13,10.002C13.281,9.254,14.205,8,15.499,8C16.794,8,17.717,9.254,18,10.002z M11,10.002l-0.755,0.506
			c0,0-0.503-0.948-1.746-0.948c-1.207,0-1.745,0.948-1.745,0.948L6,10.002C6.281,9.254,7.205,8,8.499,8
			C9.794,8,10.717,9.254,11,10.002z"/>
	</g>
</g>
</svg>
