<?xml version="1.0" encoding="utf-8"?>
<!-- Generator: Adobe Illustrator 15.1.0, SVG Export Plug-In . SVG Version: 6.00 Build 0)  -->
<!DOCTYPE svg PUBLIC "-//W3C//DTD SVG 1.1//EN" "http://www.w3.org/Graphics/SVG/1.1/DTD/svg11.dtd">
<svg version="1.1" id="Layer_1" xmlns="http://www.w3.org/2000/svg" xmlns:xlink="http://www.w3.org/1999/xlink" x="0px" y="0px"
	 width="24px" height="24px" viewBox="0 0 24 24" enable-background="new 0 0 24 24" xml:space="preserve">
<g id="Layer_1">
	<g>
		<path d="M18.919,10.431c0.24,0.292,0.258,1.004-0.026,1.284c-0.252,0.246-0.521,0.205-1.052,0.205v-1.71
			C18.344,10.21,18.705,10.171,18.919,10.431z M13.48,10.58c-0.189,0.581-0.188,2.65,0,3.217c0.217,0.654,1.067,0.654,1.283,0
			c0.19-0.568,0.19-2.639,0-3.217C14.55,9.921,13.697,9.918,13.48,10.58z M24,7.029v9.941L16.971,24H7.029L0,16.971V7.029L7.029,0
			h9.942L24,7.029z M6.91,11.895c-1-0.433-1.457-0.478-1.457-1.142c0-0.793,0.885-0.792,1.119-0.437
			c0.094,0.145,0.141,0.35,0.141,0.618h1.088v-0.157c0-0.268-0.044-0.498-0.131-0.689C7.384,9.455,6.752,9.265,6.06,9.265
			c-0.541,0-0.966,0.137-1.275,0.41c-0.661,0.583-0.729,2.082,0.354,2.669c0.644,0.35,1.419,0.396,1.61,0.91
			c0.072,0.195,0.107,0.637-0.158,0.852c-0.3,0.244-0.837,0.227-1.066-0.067c-0.162-0.206-0.149-0.533-0.149-0.795H4.24
			c0,0.538,0.017,1.024,0.414,1.425c0.553,0.559,2.118,0.557,2.812,0.012C8.173,14.123,8.327,12.518,6.91,11.895z M11.84,9.375
			H8.249v0.929h1.229v4.693h1.134v-4.693h1.229L11.84,9.375L11.84,9.375z M15.719,10.084c-0.135-0.257-0.326-0.458-0.58-0.602
			c-0.508-0.292-1.521-0.292-2.031,0c-0.252,0.145-0.443,0.345-0.578,0.602c-0.434,0.835-0.438,3.367,0,4.205
			c0.135,0.257,0.326,0.454,0.578,0.591c0.51,0.276,1.523,0.275,2.031,0c0.254-0.137,0.445-0.333,0.58-0.591
			C16.154,13.451,16.152,10.919,15.719,10.084z M18.689,9.375h-1.982v5.623h1.134v-2.244c0.638,0,0.938,0.021,1.339-0.104
			C20.688,12.185,20.688,9.375,18.689,9.375z"/>
	</g>
	<g>
		<path fill="#293247" d="M18.919,10.431c0.24,0.292,0.258,1.004-0.026,1.284c-0.252,0.246-0.521,0.205-1.052,0.205v-1.71
			C18.344,10.21,18.705,10.171,18.919,10.431z M13.48,10.58c-0.189,0.581-0.188,2.65,0,3.217c0.217,0.654,1.067,0.654,1.283,0
			c0.19-0.568,0.19-2.639,0-3.217C14.55,9.921,13.697,9.918,13.48,10.58z M24,7.029v9.941L16.971,24H7.029L0,16.971V7.029L7.029,0
			h9.942L24,7.029z M6.91,11.895c-1-0.433-1.457-0.478-1.457-1.142c0-0.793,0.885-0.792,1.119-0.437
			c0.094,0.145,0.141,0.35,0.141,0.618h1.088v-0.157c0-0.268-0.044-0.498-0.131-0.689C7.384,9.455,6.752,9.265,6.06,9.265
			c-0.541,0-0.966,0.137-1.275,0.41c-0.661,0.583-0.729,2.082,0.354,2.669c0.644,0.35,1.419,0.396,1.61,0.91
			c0.072,0.195,0.107,0.637-0.158,0.852c-0.3,0.244-0.837,0.227-1.066-0.067c-0.162-0.206-0.149-0.533-0.149-0.795H4.24
			c0,0.538,0.017,1.024,0.414,1.425c0.553,0.559,2.118,0.557,2.812,0.012C8.173,14.123,8.327,12.518,6.91,11.895z M11.84,9.375
			H8.249v0.929h1.229v4.693h1.134v-4.693h1.229L11.84,9.375L11.84,9.375z M15.719,10.084c-0.135-0.257-0.326-0.458-0.58-0.602
			c-0.508-0.292-1.521-0.292-2.031,0c-0.252,0.145-0.443,0.345-0.578,0.602c-0.434,0.835-0.438,3.367,0,4.205
			c0.135,0.257,0.326,0.454,0.578,0.591c0.51,0.276,1.523,0.275,2.031,0c0.254-0.137,0.445-0.333,0.58-0.591
			C16.154,13.451,16.152,10.919,15.719,10.084z M18.689,9.375h-1.982v5.623h1.134v-2.244c0.638,0,0.938,0.021,1.339-0.104
			C20.688,12.185,20.688,9.375,18.689,9.375z"/>
	</g>
</g>
</svg>
