<?xml version="1.0" encoding="utf-8"?>
<!-- Generator: Adobe Illustrator 15.1.0, SVG Export Plug-In . SVG Version: 6.00 Build 0)  -->
<!DOCTYPE svg PUBLIC "-//W3C//DTD SVG 1.1//EN" "http://www.w3.org/Graphics/SVG/1.1/DTD/svg11.dtd">
<svg version="1.1" id="Layer_1" xmlns="http://www.w3.org/2000/svg" xmlns:xlink="http://www.w3.org/1999/xlink" x="0px" y="0px"
	 width="24px" height="24px" viewBox="0 0 24 24" enable-background="new 0 0 24 24" xml:space="preserve">
<g id="Layer_1">
	<g>
		<path d="M21.406,9.558c-1.211-0.051-2.87-0.278-3.977-0.744C18.238,5.531,18.682,0,15.232,0c-1.86,0-2.351,1.668-2.833,3.329
			C10.852,8.665,8.454,10.145,6,10.73V10H0v12h6v-0.904c2.378,0.229,4.119,0.864,6.169,1.746C13.426,23.383,15.223,24,17.505,24
			c2.538,0,4.295-0.997,5.009-3.686c0.5-1.877,1.486-7.25,1.486-8.25C24,10.416,22.832,9.618,21.406,9.558z M4,20H2v-8h2V20z
			 M19.896,14.417c0,0,0.201,0.01,1.068-0.026c1.082-0.047,1.051,1.469,0.004,1.562l-1.761,0.099
			c-0.733,0.095-0.656,1.203,0.142,1.173c0,0,0.686-0.018,1.143-0.041c1.068-0.057,1.016,1.428,0.04,1.551
			c-0.425,0.053-1.745,0.115-1.745,0.115c-0.811,0.071-0.706,1.234,0.109,1.141l0.771-0.031c0.821-0.074,1.003,0.825-0.292,1.661
			c-1.566,0.881-4.686,0.131-6.416-0.614C10.72,20.041,8.521,19.072,6,19v-6c3.264-0.749,6.328-2.254,8.32-9.113
			C15.219,0.795,16,1.956,16,4.461c0,2.071-0.49,3.786-0.921,5.533c1.062,0.543,3.371,1.402,6.12,1.556
			c1.055,0.059,1.023,1.455-0.051,1.584l-1.395,0.167C19.754,13.301,19.146,14.412,19.896,14.417z"/>
	</g>
	<g>
		<path fill="#293247" d="M21.406,9.558c-1.211-0.051-2.87-0.278-3.977-0.744C18.238,5.531,18.682,0,15.232,0
			c-1.86,0-2.351,1.668-2.833,3.329C10.852,8.665,8.454,10.145,6,10.73V10H0v12h6v-0.904c2.378,0.229,4.119,0.864,6.169,1.746
			C13.426,23.383,15.223,24,17.505,24c2.538,0,4.295-0.997,5.009-3.686c0.5-1.877,1.486-7.25,1.486-8.25
			C24,10.416,22.832,9.618,21.406,9.558z M4,20H2v-8h2V20z M19.896,14.417c0,0,0.201,0.01,1.068-0.026
			c1.082-0.047,1.051,1.469,0.004,1.562l-1.761,0.099c-0.733,0.095-0.656,1.203,0.142,1.173c0,0,0.686-0.018,1.143-0.041
			c1.068-0.057,1.016,1.428,0.04,1.551c-0.425,0.053-1.745,0.115-1.745,0.115c-0.811,0.071-0.706,1.234,0.109,1.141l0.771-0.031
			c0.821-0.074,1.003,0.825-0.292,1.661c-1.566,0.881-4.686,0.131-6.416-0.614C10.72,20.041,8.521,19.072,6,19v-6
			c3.264-0.749,6.328-2.254,8.32-9.113C15.219,0.795,16,1.956,16,4.461c0,2.071-0.49,3.786-0.921,5.533
			c1.062,0.543,3.371,1.402,6.12,1.556c1.055,0.059,1.023,1.455-0.051,1.584l-1.395,0.167
			C19.754,13.301,19.146,14.412,19.896,14.417z"/>
	</g>
</g>
</svg>
