<?xml version="1.0" encoding="utf-8"?>
<!-- Generator: Adobe Illustrator 15.1.0, SVG Export Plug-In . SVG Version: 6.00 Build 0)  -->
<!DOCTYPE svg PUBLIC "-//W3C//DTD SVG 1.1//EN" "http://www.w3.org/Graphics/SVG/1.1/DTD/svg11.dtd">
<svg version="1.1" id="Layer_1" xmlns="http://www.w3.org/2000/svg" xmlns:xlink="http://www.w3.org/1999/xlink" x="0px" y="0px"
	 width="24px" height="24px" viewBox="0 0 24 24" enable-background="new 0 0 24 24" xml:space="preserve">
<g id="Layer_1">
	<g>
		<path d="M18.514,7.119C19.471,5.976,20,4.542,20,3.083V0H4v3.083c0,1.459,0.528,2.892,1.487,4.035l3.087,3.68
			c0.566,0.677,0.57,1.625,0.009,2.306l-3.13,3.795C4.516,18.034,4,19.453,4,20.893V24h16v-3.107c0-1.439-0.518-2.857-1.453-3.994
			l-3.13-3.793c-0.562-0.682-0.558-1.629,0.009-2.307L18.514,7.119z M18,2.999c0,1.101-0.363,2.05-1.02,2.834L16.002,7H7.998
			L7.02,5.833C6.36,5.048,6,4.097,6,2.999H18z M17.004,18.171C17.656,18.962,18,19.896,18,21h-1.061C15,19,12,19,12,19s-3,0-4.939,2
			H6c0-1.104,0.344-2.039,0.996-2.829l3.129-3.793c0.342-0.415,0.571-0.886,0.711-1.377H11v1h2v-1h0.163
			c0.142,0.491,0.369,0.962,0.711,1.376L17.004,18.171z M11,17h2v1h-2V17z M11,15h2v1h-2V15z"/>
	</g>
	<g>
		<path fill="#293247" d="M18.514,7.119C19.471,5.976,20,4.542,20,3.083V0H4v3.083c0,1.459,0.528,2.892,1.487,4.035l3.087,3.68
			c0.566,0.677,0.57,1.625,0.009,2.306l-3.13,3.795C4.516,18.034,4,19.453,4,20.893V24h16v-3.107c0-1.439-0.518-2.857-1.453-3.994
			l-3.13-3.793c-0.562-0.682-0.558-1.629,0.009-2.307L18.514,7.119z M18,2.999c0,1.101-0.363,2.05-1.02,2.834L16.002,7H7.998
			L7.02,5.833C6.36,5.048,6,4.097,6,2.999H18z M17.004,18.171C17.656,18.962,18,19.896,18,21h-1.061C15,19,12,19,12,19s-3,0-4.939,2
			H6c0-1.104,0.344-2.039,0.996-2.829l3.129-3.793c0.342-0.415,0.571-0.886,0.711-1.377H11v1h2v-1h0.163
			c0.142,0.491,0.369,0.962,0.711,1.376L17.004,18.171z M11,17h2v1h-2V17z M11,15h2v1h-2V15z"/>
	</g>
</g>
</svg>
